{"title":"Johnny English Reborn [2011] Blu-Ray 720p  x264 Dual Audio [Eng ","uid":11511766,"size":1565265381,"categoryP":"video","categoryS":"hd___movies","magnet":"?xt=urn:btih:e601208cef35b1bd1dfbdbede6470a01c8d0f5a4&amp;dn=Johnny+English+Reborn+%5B2011%5D+Blu-Ray+720p++x264+Dual+Audio+%5BEng+&amp;tr=udp%3A%2F%2Ftracker.openbittorrent.com%3A80&amp;tr=udp%3A%2F%2Fopen.demonii.com%3A1337&amp;tr=udp%3A%2F%2Ftracker.coppersurfer.tk%3A6969&amp;tr=udp%3A%2F%2Fexodus.desync.com%3A6969","seeders":11,"leechers":6,"uploader":"honey8ee","files":3,"time":1416408151,"description":"Format version : Version 4 / Version 2\nFile size : 1.45 GiB\nDuration : 1h 41mn\nOverall bit rate : 2 045 Kbps\nMovie name : Johnny English Reborn [2011] Blu-Ray 720p x264 Dual Audio [Eng DD5.1+Hindi DD5.1]...Hon3y\n\n\nVideo\nID : 1\nFormat : AVC\nFormat/Info : Advanced Video Codec\nFormat profile : &lt;a class=&quot;__cf_email__&quot; href=&quot;/cdn-cgi/l/email-protection&quot; data-cfemail=&quot;236b4a444b636f170d12&quot;&gt;[email&amp;#160;protected]&lt;/a&gt;&lt;script cf-hash='f9e31' type=&quot;text/javascript&quot;&gt;\n/* &lt;![CDATA[ */!function(){try{var t=&quot;currentScript&quot;in document?document.currentScript:function(){for(var t=document.getElementsByTagName(&quot;script&quot;),e=t.length;e--;)if(t[e].getAttribute(&quot;cf-hash&quot;))return t[e]}();if(t&amp;&amp;t.previousSibling){var e,r,n,i,c=t.previousSibling,a=c.getAttribute(&quot;data-cfemail&quot;);if(a){for(e=&quot;&quot;,r=parseInt(a.substr(0,2),16),n=2;a.length-n;n+=2)i=parseInt(a.substr(n,2),16)^r,e+=String.fromCharCode(i);e=document.createTextNode(e),c.parentNode.replaceChild(e,c)}}}catch(u){}}();/* ]]&gt; */&lt;/script&gt;\nFormat settings, CABAC : Yes\nFormat settings, ReFrames : 12 frames\nCodec ID : V_MPEG4/ISO/AVC\nDuration : 1h 41mn\nBit rate : 1 595 Kbps\nWidth : 1 280 pixels\nHeight : 536 pixels\nDisplay aspect ratio : 2.40:1\nFrame rate mode : Constant\nFrame rate : 23.976 fps\nColor space : YUV\nChroma subsampling : 4:2:0\nBit depth : 8 bits\nScan type : Progressive\nBits/(Pixel*Frame) : 0.097\nStream size : 1.10 GiB (76%)\nTitle : Bh@iyo888@Hon3yHD\n\n\nAudio #1\nID : 2\nFormat : AC-3\nFormat/Info : Audio Coding 3\nMode extension : CM (complete main)\nFormat settings, Endianness : Big\nCodec ID : A_AC3\nDuration : 1h 41mn\nBit rate mode : Constant\nBit rate : 224 Kbps\nChannel(s) : 6 channels\nChannel positions : Front: L C R, Side: L R, LFE\nSampling rate : 48.0 KHz\nBit depth : 16 bits\nCompression mode : Lossy\nStream size : 162 MiB (11%)\nTitle : Bh@iyo888@Hon3yHD\nLanguage : English\nDefault : Yes\nForced : No\n[size=3][color=green][b]\nAudio source Hindi : Buzzccd @Hon3yHD[/b][/color][/size]\nAudio #2\nID : 3\nFormat : AC-3\nFormat/Info : Audio Coding 3\nMode extension : CM (complete main)\nFormat settings, Endianness : Big\nCodec ID : A_AC3\nDuration : 1h 41mn\nBit rate mode : Constant\nBit rate : 224 Kbps\nChannel(s) : 6 channels\nChannel positions : Front: L C R, Side: L R, LFE\nSampling rate : 48.0 KHz\nBit depth : 16 bits\nCompression mode : Lossy\nStream size : 162 MiB (11%)\nTitle : Bh@iyo888@Hon3yHD\nLanguage : Hindi\nDefault : No\nForced : No\n\nFor Screen Shots:\n &lt;a href=&quot;\nhttp://www.hon3yhd.com/index.php?page=torrent-details&amp;id=5c3709ac926304ae39623c5549ac49f0ee14de87&quot; rel=&quot;nofollow&quot; target=&quot;_NEW&quot;&gt;\nhttp://www.hon3yhd.com/index.php?page=torrent-details&amp;id=5c3709ac926304ae39623c5549ac49f0ee14de87&lt;/a&gt;","torrent":{"xt":"urn:btih:e601208cef35b1bd1dfbdbede6470a01c8d0f5a4","amp;dn":"Johnny+English+Reborn+%5B2011%5D+Blu-Ray+720p++x264+Dual+Audio+%5BEng+","amp;tr":["udp%3A%2F%2Ftracker.openbittorrent.com%3A80","udp%3A%2F%2Fopen.demonii.com%3A1337","udp%3A%2F%2Ftracker.coppersurfer.tk%3A6969","udp%3A%2F%2Fexodus.desync.com%3A6969"],"infoHash":"e601208cef35b1bd1dfbdbede6470a01c8d0f5a4","infoHashBuffer":{"type":"Buffer","data":[230,1,32,140,239,53,177,189,29,251,219,237,230,71,10,1,200,208,245,164]},"announce":[],"urlList":[]}}